<?xml version="1.0" encoding="UTF-8" ?>
<!DOCTYPE svg PUBLIC "-//W3C//DTD SVG 1.1//EN" "http://www.w3.org/Graphics/SVG/1.1/DTD/svg11.dtd">
<svg width="777pt" height="292pt" viewBox="0 0 777 292" version="1.1" xmlns="http://www.w3.org/2000/svg">
<path fill="#ffffff" d=" M 0.00 0.00 L 777.00 0.00 L 777.00 292.00 L 0.00 292.00 L 0.00 0.00 Z" />
<path fill="#01d28d" d=" M 34.77 63.77 C 35.92 62.68 37.57 63.07 39.00 62.98 C 77.03 63.04 115.06 62.98 153.09 63.01 C 155.69 62.81 157.32 65.30 158.83 67.04 C 162.73 72.29 161.09 79.13 161.45 85.19 C 151.34 84.27 141.15 85.01 131.01 84.77 C 123.85 84.24 117.15 90.06 116.33 97.12 C 115.85 101.92 116.31 106.77 116.05 111.59 C 107.12 111.53 98.18 111.45 89.25 111.61 C 89.38 121.77 89.20 131.94 89.33 142.10 C 89.21 147.94 92.82 153.67 98.32 155.79 C 104.00 157.91 110.21 156.55 116.12 156.94 C 116.15 165.76 116.14 174.57 116.11 183.38 C 110.22 183.47 104.33 183.40 98.44 183.42 C 88.86 192.21 79.34 201.06 69.77 209.85 C 67.77 212.30 63.26 210.19 64.16 207.04 C 65.31 199.16 66.73 191.31 68.00 183.45 C 59.68 183.37 51.36 183.46 43.04 183.41 C 35.41 183.54 28.65 176.54 29.00 168.93 C 29.00 137.94 29.01 106.94 28.99 75.95 C 28.75 71.25 30.98 66.54 34.77 63.77 Z" />
<path fill="#505052" d=" M 580.41 84.04 C 585.83 83.87 591.25 84.03 596.68 84.04 C 596.65 120.89 596.66 157.75 596.68 194.60 C 591.25 194.60 585.83 194.58 580.41 194.61 C 580.42 192.92 580.42 191.23 580.45 189.54 C 572.15 195.21 561.84 197.72 551.86 196.50 C 539.00 195.34 527.25 187.34 520.77 176.28 C 515.38 166.94 514.46 155.36 517.44 145.08 C 520.34 135.37 527.43 127.21 536.13 122.16 C 549.69 114.46 567.61 115.16 580.42 124.12 C 580.41 110.76 580.43 97.40 580.41 84.04 Z" />
<path fill="#00759f" d=" M 116.33 97.12 C 117.15 90.06 123.85 84.24 131.01 84.77 C 141.15 85.01 151.34 84.27 161.45 85.19 C 161.48 93.98 161.49 102.78 161.43 111.58 C 167.63 111.93 174.21 110.51 180.12 112.91 C 185.07 115.21 188.49 120.53 188.20 126.03 C 188.22 136.35 188.21 146.67 188.20 157.00 C 179.28 156.86 170.36 156.95 161.44 156.93 C 161.25 162.55 162.08 168.31 160.74 173.83 C 158.94 179.63 153.12 183.78 147.07 183.72 C 136.91 183.79 126.76 183.73 116.60 183.73 L 116.11 183.72 L 116.11 183.38 C 116.14 174.57 116.15 165.76 116.12 156.94 C 110.21 156.55 104.00 157.91 98.32 155.79 C 92.82 153.67 89.21 147.94 89.33 142.10 C 89.20 131.94 89.38 121.77 89.25 111.61 C 98.18 111.45 107.12 111.53 116.05 111.59 C 116.31 106.77 115.85 101.92 116.33 97.12 Z" />
<path fill="#02dcfb" d=" M 161.45 85.19 C 186.29 85.77 211.19 85.15 236.05 85.50 C 243.23 85.99 249.31 92.75 248.91 99.97 C 248.89 131.32 248.93 162.68 248.89 194.03 C 248.99 201.35 242.35 207.90 235.05 207.83 C 225.86 207.90 216.66 207.83 207.47 207.85 C 208.73 215.57 210.02 223.28 211.28 230.99 C 208.63 231.00 205.98 231.00 203.33 231.00 C 194.95 223.25 186.64 215.41 178.12 207.81 C 162.39 207.90 146.64 207.84 130.91 207.85 C 125.06 208.03 119.44 204.12 117.43 198.66 C 115.80 193.86 116.71 188.69 116.60 183.73 C 126.76 183.73 136.91 183.79 147.07 183.72 C 153.12 183.78 158.94 179.63 160.74 173.83 C 162.08 168.31 161.25 162.55 161.44 156.93 C 170.36 156.95 179.28 156.86 188.20 157.00 C 188.21 146.67 188.22 136.35 188.20 126.03 C 188.49 120.53 185.07 115.21 180.12 112.91 C 174.21 110.51 167.63 111.93 161.43 111.58 C 161.49 102.78 161.48 93.98 161.45 85.19 Z" />
<path fill="#505052" d=" M 614.39 92.52 C 620.86 90.42 628.31 95.29 629.20 101.96 C 630.25 108.83 623.82 115.55 616.96 115.08 C 610.95 114.70 605.92 108.91 606.31 102.91 C 606.42 98.19 609.96 93.94 614.39 92.52 Z" />
<path fill="#505052" d=" M 722.37 92.46 C 729.13 90.40 736.88 95.95 737.02 103.02 C 737.40 109.79 730.71 115.98 723.98 115.00 C 718.34 114.20 713.71 108.72 714.10 102.99 C 714.12 98.16 717.84 93.81 722.37 92.46 Z" />
<path fill="#505052" d=" M 444.54 128.47 C 456.52 115.63 477.29 113.54 492.55 121.44 C 500.88 125.97 507.18 133.99 509.71 143.12 C 511.71 149.66 511.58 156.56 511.53 163.32 C 491.03 163.34 470.52 163.28 450.02 163.35 C 452.10 170.95 458.47 176.78 465.91 179.02 C 473.99 181.45 483.36 181.21 490.67 176.67 C 493.86 174.75 496.20 171.81 498.45 168.91 C 502.18 172.94 506.21 176.69 510.01 180.66 C 502.42 189.88 491.15 196.19 479.10 196.67 C 465.58 197.78 451.68 192.50 442.71 182.26 C 429.26 167.52 430.53 142.42 444.54 128.47 Z" />
<path fill="#505052" d=" M 668.05 117.77 C 678.28 115.72 689.43 117.03 698.38 122.60 C 702.10 124.82 705.21 127.86 708.23 130.93 C 704.37 134.61 700.68 138.46 696.76 142.07 C 695.10 141.38 694.04 139.52 692.55 138.45 C 682.18 129.72 664.88 131.99 656.92 142.92 C 650.19 151.18 650.66 164.24 657.97 171.99 C 665.31 180.70 678.82 183.05 688.80 177.73 C 691.82 176.16 694.25 173.75 696.62 171.35 C 700.44 175.22 704.47 178.89 708.23 182.83 C 702.96 188.32 696.67 193.10 689.22 195.12 C 677.27 198.46 663.67 196.86 653.40 189.67 C 645.91 184.44 639.87 176.84 637.41 167.96 C 634.55 157.48 635.71 145.72 641.49 136.42 C 647.38 127.01 657.09 119.88 668.05 117.77 Z" />
<path fill="#505052" d=" M 310.06 126.13 C 324.84 113.47 350.44 116.14 360.94 133.01 C 366.41 126.07 374.08 120.63 382.86 118.97 C 393.04 117.07 404.42 118.63 412.64 125.32 C 421.71 132.69 426.26 144.50 426.39 156.01 C 426.49 168.87 426.39 181.74 426.44 194.60 C 421.02 194.59 415.60 194.60 410.18 194.59 C 410.19 181.72 410.28 168.85 410.14 155.98 C 409.85 148.18 406.74 139.15 398.94 135.97 C 390.92 132.94 380.78 134.30 374.80 140.79 C 370.38 145.34 368.19 151.73 368.25 158.01 C 368.28 170.17 368.16 182.34 368.31 194.50 C 362.89 194.71 357.45 194.54 352.02 194.60 C 352.01 182.38 351.98 170.16 352.00 157.94 C 351.95 151.32 350.44 144.22 345.63 139.37 C 340.85 134.53 333.37 133.76 326.98 134.95 C 316.80 136.67 309.86 147.13 310.08 157.07 C 310.17 169.53 309.99 181.99 310.17 194.44 C 304.71 194.75 299.22 194.59 293.75 194.53 C 293.86 169.27 293.76 144.02 293.80 118.77 C 299.23 118.76 304.66 118.75 310.10 118.78 C 310.09 121.23 310.09 123.68 310.06 126.13 Z" />
<path fill="#505052" d=" M 609.57 124.15 C 614.97 124.24 620.37 124.18 625.77 124.19 C 625.78 147.66 625.74 171.12 625.79 194.59 C 620.36 194.59 614.94 194.61 609.52 194.58 C 609.59 171.11 609.49 147.63 609.57 124.15 Z" />
<path fill="#505052" d=" M 717.29 124.18 C 722.70 124.20 728.11 124.20 733.52 124.18 C 733.52 147.66 733.52 171.13 733.52 194.61 C 728.10 194.58 722.68 194.61 717.26 194.59 C 717.31 171.12 717.26 147.65 717.29 124.18 Z" />
<path fill="#ffffff" d=" M 451.16 147.08 C 454.32 139.50 461.58 133.71 469.92 133.28 C 479.69 131.90 490.86 137.19 493.78 147.08 C 479.57 147.11 465.37 147.11 451.16 147.08 Z" />
<path fill="#ffffff" d=" M 551.46 133.65 C 562.93 131.00 575.82 137.07 580.27 148.11 C 580.58 153.76 580.43 159.45 580.36 165.11 C 576.71 175.16 565.60 181.46 555.09 180.47 C 543.00 180.00 531.75 169.33 532.06 156.96 C 531.63 145.79 540.76 135.76 551.46 133.65 Z" />
</svg>
