<?xml version="1.0" encoding="UTF-8" standalone="no"?>
<svg width="18px" height="18px" viewBox="0 0 18 18" version="1.1" xmlns="http://www.w3.org/2000/svg" xmlns:xlink="http://www.w3.org/1999/xlink">
    <!-- Generator: Sketch 39.1 (31720) - http://www.bohemiancoding.com/sketch -->
    <title>social_instagram</title>
    <desc>Created with Sketch.</desc>
    <defs></defs>
    <g id="Home" stroke="none" stroke-width="1" fill="none" fill-rule="evenodd">
        <g id="home_final" transform="translate(-975.000000, -863.000000)" fill="#FFFFFF">
            <g id="Footer" transform="translate(-2.000000, 834.000000)">
                <path d="M988.857143,37.8571429 C988.857143,37.0684484 988.578128,36.3950921 988.020089,35.8370536 C987.462051,35.2790151 986.788694,35 986,35 C985.211306,35 984.537949,35.2790151 983.979911,35.8370536 C983.421872,36.3950921 983.142857,37.0684484 983.142857,37.8571429 C983.142857,38.6458373 983.421872,39.3191936 983.979911,39.8772321 C984.537949,40.4352706 985.211306,40.7142857 986,40.7142857 C986.788694,40.7142857 987.462051,40.4352706 988.020089,39.8772321 C988.578128,39.3191936 988.857143,38.6458373 988.857143,37.8571429 L988.857143,37.8571429 Z M990.397321,37.8571429 C990.397321,39.0773871 989.969498,40.1153231 989.113839,40.9709821 C988.25818,41.8266412 987.220244,42.2544643 986,42.2544643 C984.779756,42.2544643 983.74182,41.8266412 982.886161,40.9709821 C982.030502,40.1153231 981.602679,39.0773871 981.602679,37.8571429 C981.602679,36.6368987 982.030502,35.5989626 982.886161,34.7433036 C983.74182,33.8876445 984.779756,33.4598214 986,33.4598214 C987.220244,33.4598214 988.25818,33.8876445 989.113839,34.7433036 C989.969498,35.5989626 990.397321,36.6368987 990.397321,37.8571429 L990.397321,37.8571429 Z M991.602679,33.28125 C991.602679,33.5639895 991.502233,33.8058026 991.301339,34.0066964 C991.100445,34.2075903 990.858632,34.3080357 990.575893,34.3080357 C990.293153,34.3080357 990.05134,34.2075903 989.850446,34.0066964 C989.649553,33.8058026 989.549107,33.5639895 989.549107,33.28125 C989.549107,32.9985105 989.649553,32.7566974 989.850446,32.5558036 C990.05134,32.3549097 990.293153,32.2544643 990.575893,32.2544643 C990.858632,32.2544643 991.100445,32.3549097 991.301339,32.5558036 C991.502233,32.7566974 991.602679,32.9985105 991.602679,33.28125 L991.602679,33.28125 Z M986,30.8258929 C985.947916,30.8258929 985.663321,30.8240328 985.146205,30.8203125 C984.62909,30.8165922 984.236608,30.8165922 983.96875,30.8203125 C983.700892,30.8240328 983.341892,30.8351934 982.891741,30.8537946 C982.44159,30.8723959 982.058409,30.9095979 981.742188,30.9654018 C981.425966,31.0212056 981.159971,31.0900294 980.944196,31.171875 C980.572171,31.3206853 980.244793,31.5364569 979.962054,31.8191964 C979.679314,32.1019359 979.463542,32.4293136 979.314732,32.8013393 C979.232886,33.0171142 979.164063,33.2831085 979.108259,33.5993304 C979.052455,33.9155522 979.015253,34.2987329 978.996652,34.7488839 C978.978051,35.199035 978.96689,35.5580344 978.96317,35.8258929 C978.959449,36.0937513 978.959449,36.4862325 978.96317,37.0033482 C978.96689,37.5204639 978.96875,37.8050593 978.96875,37.8571429 C978.96875,37.9092265 978.96689,38.1938218 978.96317,38.7109375 C978.959449,39.2280532 978.959449,39.6205344 978.96317,39.8883929 C978.96689,40.1562513 978.978051,40.5152507 978.996652,40.9654018 C979.015253,41.4155528 979.052455,41.7987335 979.108259,42.1149554 C979.164063,42.4311772 979.232886,42.6971715 979.314732,42.9129464 C979.463542,43.2849721 979.679314,43.6123498 979.962054,43.8950893 C980.244793,44.1778288 980.572171,44.3936004 980.944196,44.5424107 C981.159971,44.6242564 981.425966,44.6930801 981.742188,44.7488839 C982.058409,44.8046878 982.44159,44.8418898 982.891741,44.8604911 C983.341892,44.8790924 983.700892,44.890253 983.96875,44.8939732 C984.236608,44.8976935 984.62909,44.8976935 985.146205,44.8939732 C985.663321,44.890253 985.947916,44.8883929 986,44.8883929 C986.052084,44.8883929 986.336679,44.890253 986.853795,44.8939732 C987.37091,44.8976935 987.763392,44.8976935 988.03125,44.8939732 C988.299108,44.890253 988.658108,44.8790924 989.108259,44.8604911 C989.55841,44.8418898 989.941591,44.8046878 990.257813,44.7488839 C990.574034,44.6930801 990.840029,44.6242564 991.055804,44.5424107 C991.427829,44.3936004 991.755207,44.1778288 992.037946,43.8950893 C992.320686,43.6123498 992.536458,43.2849721 992.685268,42.9129464 C992.767114,42.6971715 992.835937,42.4311772 992.891741,42.1149554 C992.947545,41.7987335 992.984747,41.4155528 993.003348,40.9654018 C993.021949,40.5152507 993.03311,40.1562513 993.03683,39.8883929 C993.040551,39.6205344 993.040551,39.2280532 993.03683,38.7109375 C993.03311,38.1938218 993.03125,37.9092265 993.03125,37.8571429 C993.03125,37.8050593 993.03311,37.5204639 993.03683,37.0033482 C993.040551,36.4862325 993.040551,36.0937513 993.03683,35.8258929 C993.03311,35.5580344 993.021949,35.199035 993.003348,34.7488839 C992.984747,34.2987329 992.947545,33.9155522 992.891741,33.5993304 C992.835937,33.2831085 992.767114,33.0171142 992.685268,32.8013393 C992.536458,32.4293136 992.320686,32.1019359 992.037946,31.8191964 C991.755207,31.5364569 991.427829,31.3206853 991.055804,31.171875 C990.840029,31.0900294 990.574034,31.0212056 990.257813,30.9654018 C989.941591,30.9095979 989.55841,30.8723959 989.108259,30.8537946 C988.658108,30.8351934 988.299108,30.8240328 988.03125,30.8203125 C987.763392,30.8165922 987.37091,30.8165922 986.853795,30.8203125 C986.336679,30.8240328 986.052084,30.8258929 986,30.8258929 L986,30.8258929 Z M994.571429,37.8571429 C994.571429,39.5610204 994.552828,40.7403241 994.515625,41.3950893 C994.44122,42.9427161 993.979915,44.1406208 993.131696,44.9888393 C992.283478,45.8370578 991.085573,46.2983627 989.537946,46.3727679 C988.883181,46.4099704 987.703878,46.4285714 986,46.4285714 C984.296122,46.4285714 983.116819,46.4099704 982.462054,46.3727679 C980.914427,46.2983627 979.716522,45.8370578 978.868304,44.9888393 C978.020085,44.1406208 977.55878,42.9427161 977.484375,41.3950893 C977.447172,40.7403241 977.428571,39.5610204 977.428571,37.8571429 C977.428571,36.1532653 977.447172,34.9739616 977.484375,34.3191964 C977.55878,32.7715696 978.020085,31.573665 978.868304,30.7254464 C979.716522,29.8772279 980.914427,29.415923 982.462054,29.3415179 C983.116819,29.3043153 984.296122,29.2857143 986,29.2857143 C987.703878,29.2857143 988.883181,29.3043153 989.537946,29.3415179 C991.085573,29.415923 992.283478,29.8772279 993.131696,30.7254464 C993.979915,31.573665 994.44122,32.7715696 994.515625,34.3191964 C994.552828,34.9739616 994.571429,36.1532653 994.571429,37.8571429 L994.571429,37.8571429 Z" id="social_instagram"></path>
            </g>
        </g>
    </g>
</svg>