<?xml version="1.0" encoding="UTF-8" standalone="no"?>
<svg width="18px" height="17px" viewBox="0 0 18 17" version="1.1" xmlns="http://www.w3.org/2000/svg" xmlns:xlink="http://www.w3.org/1999/xlink">
    <!-- Generator: Sketch 39.1 (31720) - http://www.bohemiancoding.com/sketch -->
    <title>social_linkedin</title>
    <desc>Created with Sketch.</desc>
    <defs></defs>
    <g id="Home" stroke="none" stroke-width="1" fill="none" fill-rule="evenodd">
        <g id="home_final" transform="translate(-885.000000, -863.000000)" fill="#FFFFFF">
            <g id="Footer" transform="translate(-2.000000, 834.000000)">
                <path d="M891.323661,34.8325893 L891.323661,45.8928571 L887.640625,45.8928571 L887.640625,34.8325893 L891.323661,34.8325893 Z M891.558036,31.4174107 C891.565476,31.9605682 891.377606,32.4144327 890.99442,32.7790179 C890.611233,33.143603 890.107146,33.3258929 889.482143,33.3258929 L889.459821,33.3258929 C888.849699,33.3258929 888.358633,33.143603 887.986607,32.7790179 C887.614581,32.4144327 887.428571,31.9605682 887.428571,31.4174107 C887.428571,30.8668127 887.620162,30.4110881 888.003348,30.0502232 C888.386535,29.6893583 888.886902,29.5089286 889.504464,29.5089286 C890.122027,29.5089286 890.616814,29.6893583 890.988839,30.0502232 C891.360865,30.4110881 891.550595,30.8668127 891.558036,31.4174107 L891.558036,31.4174107 Z M904.571429,39.5535714 L904.571429,45.8928571 L900.899554,45.8928571 L900.899554,39.9776786 C900.899554,39.1964247 900.748885,38.5844516 900.447545,38.1417411 C900.146204,37.6990305 899.675598,37.4776786 899.035714,37.4776786 C898.566962,37.4776786 898.174481,37.6060255 897.858259,37.8627232 C897.542037,38.1194209 897.305804,38.4374981 897.149554,38.8169643 C897.067708,39.0401797 897.026786,39.341516 897.026786,39.7209821 L897.026786,45.8928571 L893.354911,45.8928571 C893.369792,42.9240923 893.377232,40.5171223 893.377232,38.671875 C893.377232,36.8266277 893.373512,35.7254482 893.366071,35.3683036 L893.354911,34.8325893 L897.026786,34.8325893 L897.026786,36.4397321 L897.004464,36.4397321 C897.153275,36.2016357 897.305803,35.9933045 897.462054,35.8147321 C897.618304,35.6361598 897.828496,35.4427094 898.092634,35.234375 C898.356772,35.0260406 898.68043,34.8642119 899.063616,34.7488839 C899.446803,34.633556 899.872766,34.5758929 900.341518,34.5758929 C901.613846,34.5758929 902.636901,34.9981357 903.410714,35.8426339 C904.184528,36.6871322 904.571429,37.924099 904.571429,39.5535714 L904.571429,39.5535714 Z" id="social_linkedin"></path>
            </g>
        </g>
    </g>
</svg>