<?xml version="1.0" encoding="UTF-8" standalone="no"?>
<svg width="18px" height="18px" viewBox="0 0 18 18" version="1.1" xmlns="http://www.w3.org/2000/svg" xmlns:xlink="http://www.w3.org/1999/xlink">
    <!-- Generator: Sketch 39.1 (31720) - http://www.bohemiancoding.com/sketch -->
    <title>social_facebook</title>
    <desc>Created with Sketch.</desc>
    <defs></defs>
    <g id="Home" stroke="none" stroke-width="1" fill="none" fill-rule="evenodd">
        <g id="home_final" transform="translate(-845.000000, -863.000000)" fill="#FFFFFF">
            <g id="Footer" transform="translate(-2.000000, 834.000000)">
                <path d="M861.357143,29.2857143 C862.242564,29.2857143 862.999625,29.6000713 863.628348,30.2287946 C864.257072,30.857518 864.571429,31.6145789 864.571429,32.5 L864.571429,43.2142857 C864.571429,44.0997068 864.257072,44.8567677 863.628348,45.4854911 C862.999625,46.1142145 862.242564,46.4285714 861.357143,46.4285714 L859.258929,46.4285714 L859.258929,39.7879464 L861.479911,39.7879464 L861.814732,37.1986607 L859.258929,37.1986607 L859.258929,35.546875 C859.258929,35.1302063 859.346353,34.8177094 859.521205,34.609375 C859.696057,34.4010406 860.036456,34.296875 860.542411,34.296875 L861.904018,34.2857143 L861.904018,31.9754464 C861.435266,31.9084818 860.77307,31.875 859.917411,31.875 C858.905501,31.875 858.096357,32.1726161 857.489955,32.7678571 C856.883554,33.3630982 856.580357,34.2038636 856.580357,35.2901786 L856.580357,37.1986607 L854.348214,37.1986607 L854.348214,39.7879464 L856.580357,39.7879464 L856.580357,46.4285714 L850.642857,46.4285714 C849.757436,46.4285714 849.000375,46.1142145 848.371652,45.4854911 C847.742928,44.8567677 847.428571,44.0997068 847.428571,43.2142857 L847.428571,32.5 C847.428571,31.6145789 847.742928,30.857518 848.371652,30.2287946 C849.000375,29.6000713 849.757436,29.2857143 850.642857,29.2857143 L861.357143,29.2857143 Z" id="social_facebook"></path>
            </g>
        </g>
    </g>
</svg>