<?xml version="1.0" encoding="UTF-8" standalone="no"?>
<svg width="19px" height="15px" viewBox="0 0 19 15" version="1.1" xmlns="http://www.w3.org/2000/svg" xmlns:xlink="http://www.w3.org/1999/xlink">
    <!-- Generator: Sketch 39.1 (31720) - http://www.bohemiancoding.com/sketch -->
    <title>social_twitter</title>
    <desc>Created with Sketch.</desc>
    <defs></defs>
    <g id="Home" stroke="none" stroke-width="1" fill="none" fill-rule="evenodd">
        <g id="home_final" transform="translate(-934.000000, -864.000000)" fill="#FFFFFF">
            <g id="Footer" transform="translate(-2.000000, 834.000000)">
                <path d="M954.294643,32.4107143 C953.796128,33.1398846 953.193456,33.7611581 952.486607,34.2745536 C952.494048,34.3787208 952.497768,34.5349692 952.497768,34.7433036 C952.497768,35.7105703 952.3564,36.6759624 952.073661,37.6395089 C951.790921,38.6030554 951.361238,39.5275253 950.784598,40.4129464 C950.207958,41.2983675 949.521581,42.0814698 948.725446,42.7622768 C947.929311,43.4430838 946.9695,43.9862331 945.845982,44.3917411 C944.722465,44.7972491 943.52084,45 942.241071,45 C940.224692,45 938.379473,44.4605709 936.705357,43.3816964 C936.965775,43.4114585 937.255951,43.4263393 937.575893,43.4263393 C939.250008,43.4263393 940.741809,42.9129516 942.051339,41.8861607 C941.270085,41.8712797 940.570688,41.6313267 939.953125,41.1662946 C939.335562,40.7012626 938.911459,40.1078905 938.680804,39.3861607 C938.926341,39.4233633 939.153273,39.4419643 939.361607,39.4419643 C939.681549,39.4419643 939.997766,39.4010421 940.310268,39.3191964 C939.47693,39.1480646 938.786833,38.7332622 938.239955,38.0747768 C937.693078,37.4162914 937.419643,36.6517901 937.419643,35.78125 L937.419643,35.7366071 C937.925598,36.0193467 938.468747,36.1718749 939.049107,36.1941964 C938.558033,35.8668138 938.167412,35.4389907 937.877232,34.9107143 C937.587052,34.3824378 937.441964,33.8095269 937.441964,33.1919643 C937.441964,32.5371991 937.605653,31.9308064 937.933036,31.3727679 C938.833338,32.4814044 939.928937,33.3686723 941.219866,34.0345982 C942.510795,34.7005242 943.89285,35.0706842 945.366071,35.1450893 C945.306547,34.8623498 945.276786,34.5870549 945.276786,34.3191964 C945.276786,33.3221676 945.628345,32.4721017 946.331473,31.7689732 C947.034602,31.0658447 947.884668,30.7142857 948.881696,30.7142857 C949.923368,30.7142857 950.801336,31.0937462 951.515625,31.8526786 C952.326641,31.6964278 953.089282,31.4062521 953.803571,30.9821429 C953.528272,31.8378019 953.000004,32.4999977 952.21875,32.96875 C952.910718,32.8943449 953.602675,32.7083348 954.294643,32.4107143 L954.294643,32.4107143 Z" id="social_twitter"></path>
            </g>
        </g>
    </g>
</svg>